<svg xmlns="http://www.w3.org/2000/svg" viewBox="0 0 888.72 1225.81"><defs><style>.a{fill:#444545;}.a,.b,.c,.d{fill-rule:evenodd;}.b{fill:#666766;}.c{fill:#888;}.d{fill:#ababab;}</style></defs><polygon class="a" points="2.25 738.14 285.19 578.99 285.25 578.96 355.19 538.58 425.19 498.16 426.65 499.01 426.65 205.77 214.45 328.28 2.25 450.8 2.25 695.83 2.25 738.14"/><polygon class="b" points="282.93 618.91 0 778.05 0 980.77 212.2 1103.29 424.4 1225.81 422.94 861.4 352.93 820.98 282.93 780.58 282.93 699.74 282.93 618.91"/><polygon class="c" points="532.86 820.98 462.86 861.4 464.32 1225.81 676.52 1103.29 888.72 980.77 888.72 861.4 888.72 735.75 888.72 619.77 602.86 780.58 532.86 820.98"/><polygon class="d" points="602.86 619.41 602.86 740.66 888.72 579.86 888.72 260.69 888.72 0 602.86 169.52 602.86 578.99 602.86 619.41"/></svg>